# AST/ASF file generated using VICON BodyLanguage
# -----------------------------------------------
:version 1.10
:name VICON
:units
  mass 1.0
  length 0.45
  angle deg
:documentation
   .ast/.asf automatically generated from VICON data using
   VICON BodyBuilder and BodyLanguage model FoxedUp or BRILLIANT.MOD
:root
   order TX TY TZ RX RY RZ
   axis XYZ
   position 0 0 0  
   orientation 0 0 0 
:bonedata
  begin
     id 1 
     name lhipjoint
     direction 0.653368 -0.678499 0.335782 
     length 2.51848 
     axis 0 0 0  XYZ
  end
  begin
     id 2 
     name lfemur
     direction 0.34202 -0.939693 0  
     length 6.57749  
     axis 0 0 20  XYZ
    dof rx ry rz
    limits (-160.0 20.0)
           (-70.0 70.0)
           (-60.0 70.0)
  end
  begin
     id 3 
     name ltibia
     direction 0.34202 -0.939693 0   
     length 7.94618   
     axis 0 0 20   XYZ
    dof rx
    limits (-10.0 170.0)
  end
  begin
     id 4 
     name lfoot
     direction 0.0811271 -0.222895 0.971461   
     length 2.31339   
     axis -90 7.62852e-016 20   XYZ
    dof rx rz
    limits (-45.0 90.0)
           (-70.0 20.0)
  end
  begin
     id 5 
     name ltoes
     direction 1.53568e-011 -4.21885e-011 1   
     length 1.15935   
     axis -90 7.62852e-016 20   XYZ
    dof rx
    limits (-90.0 20.0)
  end
  begin
     id 6 
     name rhipjoint
     direction -0.640058 -0.688614 0.340788   
     length 2.48149  
     axis 0 0 0  XYZ 
  end
  begin
     id 7 
     name rfemur
     direction -0.34202 -0.939693 0   
     length 6.57875   
     axis 0 0 -20   XYZ
    dof rx ry rz
    limits (-160.0 20.0)
           (-70.0 70.0)
           (-70.0 60.0)
  end
  begin
     id 8 
     name rtibia
     direction -0.34202 -0.939693 0   
     length 7.977   
     axis 0 0 -20   XYZ
    dof rx
    limits (-10.0 170.0)
 end
 begin
     id 9 
     name rfoot
     direction -0.0979793 -0.269196 0.958089   
     length 2.19857  
     axis -90 -7.62852e-016 -20   XYZ
    dof rx rz
    limits (-45.0 90.0)
           (-20.0 70.0)
  end
  begin
     id 10 
     name rtoes
     direction -1.53556e-011 -4.21868e-011 1   
     length 1.09838   
     axis -90 -7.62852e-016 -20   XYZ
    dof rx
    limits (-90.0 20.0)
  end
  begin
     id 11 
     name lowerback
     direction 0.0149039 0.998517 -0.0523597   
     length 2.10809   
     axis 0 0 0   XYZ
    dof rx ry rz
    limits (-20.0 45.0)
           (-30.0 30.0)
           (-30.0 30.0)
  end
  begin
     id 12 
     name upperback
     direction -0.00882659 0.999418 -0.0329624   
     length 2.1102   
     axis 0 0 0   XYZ
    dof rx ry rz
    limits (-20.0 45.0)
           (-30.0 30.0)
           (-30.0 30.0)
  end
  begin
     id 13 
     name thorax
     direction -0.0165585 0.999826 -0.0085833   
     length 2.11039   
     axis 0 0 0   XYZ
    dof rx ry rz
    limits (-20.0 45.0)
           (-30.0 30.0)
           (-30.0 30.0)
  end
  begin
     id 14 
     name lowerneck
     direction -0.0130877 0.999911 0.00260353   
     length 1.73253   
     axis 0 0 0   XYZ
    dof rx ry rz
    limits (-20.0 45.0)
           (-30.0 30.0)
           (-30.0 30.0)
  end
  begin
     id 15 
     name upperneck
     direction -0.0348454 0.928205 -0.370435   
     length 1.66692   
     axis 0 0 0   XYZ
    dof rx ry rz
    limits (-20.0 45.0)
           (-30.0 30.0)
           (-30.0 30.0)
  end
  begin
     id 16
     name head
     direction -0.00807754 0.992494 -0.122026  
     length 1.72765  
     axis 0 0 0   XYZ
    dof rx ry rz
    limits (-20.0 45.0)
           (-30.0 30.0)
           (-30.0 30.0)
  end
  begin
     id 17 
     name lclavicle
     direction 0.987582 0.144023 0.0627671  
     length 3.49235  
     axis 0 0 0   XYZ
    dof ry rz
    limits (-20.0 10.0)
           (0.0 20.0)
  end
  begin
     id 18 
     name lhumerus
     direction 1 -4.48958e-011 -1.45183e-018   
     length 5.41917   
     axis 180 -30 -90   XYZ
    dof rx ry rz
    limits (-60.0 90.0)
           (-90.0 90.0)
           (-90.0 90.0)
  end
  begin
     id 19
     name lradius
     direction 1 -4.48999e-011 5.75106e-027   
     length 2.44373   
     axis 180 -30 -90   XYZ
    dof rx
    limits (-10.0 170.0)
  end
  begin
     id 20
     name lwrist
     direction 1 -4.48987e-011 1.53461e-026   
     length 1.22186   
     axis -1.09697e-014 90 90   XYZ
    dof ry
    limits (-180.0 0.0)
 end
  begin
     id 21 
     name lhand
     direction 1 -4.48881e-011 3.06923e-026   
     length 0.727502   
     axis -1.95843e-014 90 90   XYZ
    dof rx rz
    limits (-90.0 90.0)
           (-45.0 45.0)
  end
  begin
     id 22 
     name lfingers
     direction 1 -4.48907e-011 6.13845e-026   
     length 0.586531   
     axis -3.91686e-014 90 90   XYZ
    dof rx
    limits (0.0 90.0)
  end
  begin
     id 23
     name lthumb
     direction 0.707107 -6.3487e-011 0.707107   
     length 0.842145   
     axis -90 45 2.85299e-015   XYZ
    dof rx rz
    limits (-45.0 45.0)
           (-45.0 45.0)
  end
  begin
     id 24 
     name rclavicle
     direction -0.980998 0.169556 0.0943023   
     length 3.29272  
     axis 0 0 0   XYZ 
    dof ry rz
    limits (-10.0 20.0)
           (-20.0 0.0)
  end
  begin
     id 25 
     name rhumerus
     direction -1 -1.83355e-005 2.45537e-005  
     length 5.58976   
     axis 180 30 90   XYZ
    dof rx ry rz
    limits (-90.0 60.0)
           (-90.0 90.0)
           (-90.0 90.0)
  end
  begin
     id 26 
     name rradius
     direction -1 -4.48967e-011 5.97228e-027   
     length 2.4806   
     axis 180 30 90   XYZ
    dof rx
    limits (-10.0 170.0)
  end
  begin
     id 27 
     name rwrist
     direction -1 -4.48963e-011 1.53461e-026   
     length 1.2403   
     axis -1.09697e-014 -90 -90   XYZ
    dof ry
    limits (-180.0 0.0)
  end
  begin
     id 28
     name rhand
     direction -1 -4.48881e-011 3.06923e-026   
     length 0.816009   
     axis -1.95843e-014 -90 -90   XYZ
    dof rx rz
    limits (-90.0 90.0)
           (-45.0 45.0)
  end
  begin
     id 29
     name rfingers
     direction -1 -4.49018e-011 6.13845e-026   
     length 0.657887   
     axis -3.91686e-014 -90 -90   XYZ
    dof rx
    limits (0.0 90.0)
  end
  begin
     id 30
     name rthumb
     direction -0.707107 -6.34872e-011 0.707107   
     length 0.944599   
     axis -90 -45 -2.85299e-015   XYZ
    dof rx rz
    limits (-45.0 45.0)
           (-45.0 45.0)
  end
:hierarchy
  begin
    root lhipjoint rhipjoint lowerback
    lhipjoint lfemur
    lfemur ltibia
    ltibia lfoot
    lfoot ltoes
    rhipjoint rfemur
    rfemur rtibia
    rtibia rfoot
    rfoot rtoes
    lowerback upperback
    upperback thorax
    thorax lowerneck lclavicle rclavicle
    lowerneck upperneck
    upperneck head
    lclavicle lhumerus
    lhumerus lradius
    lradius lwrist
    lwrist lhand lthumb
    lhand lfingers
    rclavicle rhumerus
    rhumerus rradius
    rradius rwrist
    rwrist rhand rthumb
    rhand rfingers
  end

#!OML:ASF F:\VICON\USERDATA\INSTALL\rory3\rory3.ASF
:FULLY-SPECIFIED
:DEGREES
170
root -0.562842 17.2818 17.2895 -156.043 -24.5224 -183.224
lowerback -1.90615 2.266 3.55779
upperback -3.86442 2.88477 0.0217359
thorax -2.73125 1.28123 -1.97455
lowerneck -14.2716 0.467541 -1.60254
upperneck 41.2594 -3.14509 0.0683412
head 17.6651 -2.75518 -0.657637
rclavicle 3.91606e-014 -1.59028e-014
rhumerus -33.6416 -14.9888 -66.8135
rradius 16.173
rwrist 1.7803
rhand -7.44351 20.5194
rfingers 7.12502
rthumb 18.4442 -8.62617
lclavicle 3.91606e-014 -1.59028e-014
lhumerus -50.692 16.1872 65.9552
lradius 37.9136
lwrist -3.32041
lhand 2.34889 16.8618
lfingers 7.12502
lthumb 27.8382 44.8194
rfemur -29.6858 13.9427 22.9621
rtibia 25.7586
rfoot -47.2032 -37.9847
rtoes 38.5903
lfemur -41.9506 10.4033 -21.9051
ltibia 38.2571
lfoot -26.7463 27.2506
ltoes 4.94021
171
root -0.546549 17.2768 17.2775 -155.909 -24.7214 -183.317
lowerback -2.23912 2.25322 3.55775
upperback -3.93823 2.84602 -0.0330002
thorax -2.6201 1.25891 -2.01877
lowerneck -14.2495 0.447154 -1.59522
upperneck 41.4554 -3.27809 0.133753
head 17.7773 -2.81368 -0.663298
rclavicle 7.81224e-014 2.14687e-014
rhumerus -33.941 -15.5699 -66.4482
rradius 15.864
rwrist 2.48281
rhand -7.83445 21.2811
rfingers 7.12502
rthumb 18.0681 -7.89963
lclavicle 7.81224e-014 2.14687e-014
lhumerus -50.827 16.0056 65.7596
lradius 37.7061
lwrist -3.20319
lhand 2.34707 17.2899
lfingers 7.12502
lthumb 27.8365 45.2479
rfemur -30.026 13.8793 22.9325
rtibia 26.1997
rfoot -47.6731 -37.727
rtoes 38.9773
lfemur -41.1865 11.0516 -21.9407
ltibia 38.6329
lfoot -27.6033 27.4804
ltoes 8.47836
172
root -0.528678 17.2643 17.2614 -155.758 -24.907 -183.524
lowerback -2.75999 2.17206 3.34027
upperback -3.96646 2.70992 -0.064568
thorax -2.37277 1.19739 -1.91096
lowerneck -14.0873 0.527074 -1.64978
upperneck 41.6626 -3.28678 0.265605
head 17.8607 -2.8313 -0.603166
rclavicle 3.37934e-014 3.97569e-015
rhumerus -34.2779 -15.631 -66.4023
rradius 15.7963
rwrist 2.90717
rhand -8.342 21.6913
rfingers 7.12502
rthumb 17.5797 -7.53392
lclavicle 3.37934e-014 3.97569e-015
lhumerus -51.0085 16.0996 65.4624
lradius 37.4619
lwrist -3.04961
lhand 2.06249 17.7126
lfingers 7.12502
lthumb 27.5644 45.7143
rfemur -30.2549 13.6109 22.9287
rtibia 26.5941
rfoot -47.86 -37.4913
rtoes 39.2826
lfemur -40.2931 11.5451 -21.9742
ltibia 38.9555
lfoot -28.5075 28.296
ltoes 9.38127
173
root -0.515121 17.2504 17.2454 -155.726 -25.0003 -183.823
lowerback -3.0323 2.0918 3.06166
upperback -3.95586 2.593 -0.12148
thorax -2.22456 1.14758 -1.80508
lowerneck -14.0513 0.586082 -1.89586
upperneck 41.8483 -3.30983 0.56009
head 17.9743 -2.85651 -0.43587
rclavicle 6.34123e-014 1.11319e-014
rhumerus -34.5648 -15.7029 -66.2995
rradius 15.7889
rwrist 3.30348
rhand -8.36569 21.5255
rfingers 7.12502
rthumb 17.5569 -7.70179
lclavicle 6.34123e-014 1.11319e-014
lhumerus -51.1512 16.2601 65.1579
lradius 37.1848
lwrist -2.93013
lhand 2.03539 17.8231
lfingers 7.12502
lthumb 27.5384 45.8289
rfemur -30.2436 13.2198 22.8809
rtibia 26.8983
rfoot -47.8802 -37.1219
rtoes 39.3561
lfemur -39.1501 12.0808 -22.1055
ltibia 39.2411
lfoot -29.1669 29.2359
ltoes 9.62361
174
root -0.500871 17.2411 17.2291 -155.841 -25.0549 -184.089
lowerback -2.98449 1.97146 2.74283
upperback -3.89676 2.44275 -0.0680909
thorax -2.21277 1.08433 -1.57522
lowerneck -14.3852 0.59945 -2.25489
upperneck 42.0619 -3.28149 0.759275
head 18.2041 -2.87944 -0.287078
rclavicle 4.17448e-014 1.98785e-014
rhumerus -34.4555 -15.5488 -66.1941
rradius 15.5877
rwrist 3.34292
rhand -8.46037 21.294
rfingers 7.12502
rthumb 17.4658 -7.94136
lclavicle 4.17448e-014 1.98785e-014
lhumerus -51.2803 16.6049 64.9697
lradius 36.8357
lwrist -2.78493
lhand 1.87174 17.7435
lfingers 7.12502
lthumb 27.3819 45.7741
rfemur -30.0672 13.1994 22.7815
rtibia 27.1453
rfoot -48.1264 -37.0515
rtoes 39.2733
lfemur -37.8172 12.755 -22.2069
ltibia 39.482
lfoot -30.0739 29.0809
ltoes 11.863
175
root -0.488332 17.2364 17.2175 -155.878 -25.3429 -184.099
lowerback -3.23459 1.73747 2.66777
upperback -3.88278 2.12123 0.151615
thorax -2.08387 0.92835 -1.30449
lowerneck -14.2918 0.673377 -2.285
upperneck 41.9725 -3.01697 0.466366
head 18.1107 -2.82201 -0.365114
rclavicle 2.40529e-014 -1.59028e-015
rhumerus -34.2628 -15.1662 -66.1237
rradius 15.3576
rwrist 3.57283
rhand -8.82568 21.3807
rfingers 7.12502
rthumb 17.1142 -7.88551
lclavicle 2.40529e-014 -1.59028e-015
lhumerus -51.6591 17.1547 64.7304
lradius 36.6172
lwrist -2.59004
lhand 1.7988 17.7372
lfingers 7.12502
lthumb 27.3122 45.7788
rfemur -30.039 13.0176 22.9748
rtibia 27.3245
rfoot -48.5086 -36.8228
rtoes 39.5534
lfemur -36.7588 13.3898 -22.0381
ltibia 39.7296
lfoot -29.9874 29.6249
ltoes 11.5516
176
root -0.478461 17.2318 17.2058 -155.803 -25.7055 -184.018
lowerback -3.80263 1.57431 2.73089
upperback -3.95172 1.8713 0.313218
thorax -1.85108 0.800024 -1.16397
lowerneck -13.7655 0.746431 -2.1783
upperneck 41.8319 -2.88202 0.240455
head 17.8746 -2.79929 -0.453965
rclavicle -5.30755e-014 -1.27222e-014
rhumerus -34.5167 -15.4744 -65.784
rradius 15.2272
rwrist 4.38692
rhand -9.01598 21.5408
rfingers 7.12502
rthumb 16.9311 -7.74126
lclavicle -5.30755e-014 -1.27222e-014
lhumerus -52.0207 17.4298 64.5103
lradius 36.487
lwrist -2.43621
lhand 1.543 18.0636
lfingers 7.12502
lthumb 27.0674 46.1435
rfemur -30.1601 12.6975 23.2555
rtibia 27.447
rfoot -48.7818 -36.5934
rtoes 39.706
lfemur -35.8391 13.8066 -21.7389
ltibia 39.9671
lfoot -29.8432 30.5155
ltoes 10.9401
177
root -0.46709 17.2236 17.1877 -155.65 -25.9548 -183.925
lowerback -4.37998 1.53854 2.80794
upperback -4.09005 1.78512 0.365899
thorax -1.67437 0.748465 -1.14227
lowerneck -13.4567 0.764503 -2.09234
upperneck 41.954 -2.97799 0.236561
head 17.8647 -2.85066 -0.493024
rclavicle 1.80894e-014 1.66979e-014
rhumerus -34.9131 -16.4443 -65.13
rradius 14.92
rwrist 5.40778
rhand -8.81981 21.4882
rfingers 7.12502
rthumb 17.1199 -7.77755
lclavicle 1.80894e-014 1.66979e-014
lhumerus -52.2271 17.6558 64.1491
lradius 36.1832
lwrist -2.50489
lhand 1.55588 18.307
lfingers 7.12502
lthumb 27.0798 46.3851
rfemur -30.3797 12.6118 23.442
rtibia 27.5271
rfoot -49.1532 -36.4068
rtoes 40.2424
lfemur -34.9116 14.148 -21.4034
ltibia 40.1836
lfoot -31.3749 29.9239
ltoes 14.538
178
root -0.457061 17.2182 17.1703 -155.387 -26.1149 -184.001
lowerback -4.75499 1.53182 2.81141
upperback -4.30746 1.74537 0.331971
thorax -1.69022 0.716539 -1.17375
lowerneck -13.2211 0.71903 -1.98621
upperneck 42.0024 -3.09371 0.12118
head 17.8281 -2.91329 -0.587876
rclavicle 5.60573e-014 2.14687e-014
rhumerus -35.2842 -16.7256 -64.7737
rradius 14.8132
rwrist 5.50476
rhand -8.37381 21.112
rfingers 7.12502
rthumb 17.5491 -8.11594
lclavicle 5.60573e-014 2.14687e-014
lhumerus -52.4779 18.0403 63.5154
lradius 35.6617
lwrist -2.8969
lhand 1.87716 18.0619
lfingers 7.12502
lthumb 27.3871 46.0917
rfemur -30.6428 12.3967 23.4758
rtibia 27.6029
rfoot -49.4498 -36.1359
rtoes 40.55
lfemur -33.9282 14.3171 -21.2113
ltibia 40.321
lfoot -32.7407 29.494
ltoes 17.1865
179
root -0.448382 17.2147 17.1584 -155.194 -26.2769 -184.148
lowerback -4.92959 1.56076 2.85111
upperback -4.60841 1.7571 0.177098
thorax -1.89778 0.703037 -1.35394
lowerneck -12.8345 0.706929 -1.76687
upperneck 42.13 -3.27855 0.0949066
head 17.7993 -2.98594 -0.676408
rclavicle -1.19271e-014 -1.51076e-014
rhumerus -36.0535 -16.905 -64.5645
rradius 14.8007
rwrist 5.617
rhand -8.54881 20.961
rfingers 7.12502
rthumb 17.3807 -8.2819
lclavicle -1.19271e-014 -1.51076e-014
lhumerus -52.7918 17.8357 63.018
lradius 35.2965
lwrist -2.7803
lhand 1.91701 17.7303
lfingers 7.12502
lthumb 27.4252 45.7541
rfemur -30.7904 12.3257 23.4072
rtibia 27.6534
rfoot -49.8673 -35.9804
rtoes 40.7282
lfemur -32.8473 14.4721 -21.1024
ltibia 40.378
lfoot -32.4948 30.3392
ltoes 16.4572
